<svg xmlns="http://www.w3.org/2000/svg" version="1.1" width="250px" height="250px" style="shape-rendering:geometricPrecision; text-rendering:geometricPrecision; image-rendering:optimizeQuality; fill-rule:evenodd; clip-rule:evenodd" xmlns:xlink="http://www.w3.org/1999/xlink">
<g><path style="opacity:1" fill="#effef8" d="M -0.5,-0.5 C 26.1667,-0.5 52.8333,-0.5 79.5,-0.5C 73.0143,3.1368 70.1809,8.80347 71,16.5C 67.3096,22.9989 68.8096,28.1656 75.5,32C 86.7236,30.4444 97.7236,27.7778 108.5,24C 113.6,16.0378 111.6,10.8711 102.5,8.5C 101.673,1.42454 98.1731,-0.242126 92,3.5C 90.1879,2.02294 88.3545,0.689603 86.5,-0.5C 140.833,-0.5 195.167,-0.5 249.5,-0.5C 249.5,82.8333 249.5,166.167 249.5,249.5C 166.167,249.5 82.8333,249.5 -0.5,249.5C -0.5,242.833 -0.5,236.167 -0.5,229.5C 0.495904,229.414 1.32924,229.748 2,230.5C 3.79201,239.075 7.79201,240.408 14,234.5C 16.1917,235.399 18.3584,236.399 20.5,237.5C 22.2693,245.983 26.6027,247.65 33.5,242.5C 35.1047,243.43 36.6047,243.43 38,242.5C 41.4654,233.91 44.6321,225.244 47.5,216.5C 38.978,213.66 30.478,210.66 22,207.5C 19.7766,209.28 18.6099,211.614 18.5,214.5C 9.17453,212.337 3.50786,216.004 1.5,225.5C 1.04311,226.298 0.376442,226.631 -0.5,226.5C -0.5,150.833 -0.5,75.1667 -0.5,-0.5 Z"/></g>
<g><path style="opacity:1" fill="#d8e5e0" d="M 79.5,-0.5 C 81.8333,-0.5 84.1667,-0.5 86.5,-0.5C 88.3545,0.689603 90.1879,2.02294 92,3.5C 98.1731,-0.242126 101.673,1.42454 102.5,8.5C 111.6,10.8711 113.6,16.0378 108.5,24C 97.7236,27.7778 86.7236,30.4444 75.5,32C 68.8096,28.1656 67.3096,22.9989 71,16.5C 70.1809,8.80347 73.0143,3.1368 79.5,-0.5 Z"/></g>
<g><path style="opacity:1" fill="#d8e5e0" d="M 225.5,4.5 C 229.198,4.19436 232.698,4.86102 236,6.5C 244.274,2.06641 248.274,4.39974 248,13.5C 244.352,18.315 240.185,22.6484 235.5,26.5C 230.435,22.6033 226.268,17.9366 223,12.5C 222.018,9.2253 222.851,6.55863 225.5,4.5 Z"/></g>
<g><path style="opacity:1" fill="#eefdf7" d="M 84.5,6.5 C 88.4409,8.13961 92.1076,10.3063 95.5,13C 93.3485,13.2649 91.6819,14.2649 90.5,16C 91.6733,18.5209 91.6733,21.0209 90.5,23.5C 89.2638,24.2458 87.9305,24.5792 86.5,24.5C 86.882,18.2968 84.2153,15.7968 78.5,17C 80.7277,13.6116 82.7277,10.1116 84.5,6.5 Z"/></g>
<g><path style="opacity:1" fill="#dae7e2" d="M 208.5,9.5 C 210.818,9.81836 212.152,11.1517 212.5,13.5C 211.29,17.1277 210.29,20.7944 209.5,24.5C 211.39,24.2965 212.89,24.9632 214,26.5C 214.742,29.5533 215.909,32.3866 217.5,35C 216.296,42.2792 211.962,45.7792 204.5,45.5C 194.142,43.3537 190.309,37.0203 193,26.5C 194.299,25.91 195.132,24.91 195.5,23.5C 194.601,20.3027 193.601,17.136 192.5,14C 193.109,11.1968 194.775,10.1968 197.5,11C 199.298,14.0967 200.965,17.2633 202.5,20.5C 204.254,16.6552 206.254,12.9886 208.5,9.5 Z"/></g>
<g><path style="opacity:1" fill="#ecfbf5" d="M 208.5,12.5 C 209.497,12.4701 210.164,12.9701 210.5,14C 208.993,17.0212 207.993,20.1879 207.5,23.5C 206.325,23.719 205.325,23.3857 204.5,22.5C 205.645,19.0581 206.979,15.7248 208.5,12.5 Z"/></g>
<g><path style="opacity:1" fill="#dae7e2" d="M 161.5,8.5 C 163.144,8.28649 164.644,8.61983 166,9.5C 168.229,13.2605 169.229,17.2605 169,21.5C 163.956,27.4887 165.456,29.9887 173.5,29C 176.925,26.7155 177.425,23.8821 175,20.5C 173.299,18.5903 171.799,16.5903 170.5,14.5C 171.38,11.4825 173.214,10.8158 176,12.5C 176.72,14.1124 176.554,15.6124 175.5,17C 181.157,25.9654 178.824,30.9654 168.5,32C 166.36,31.0267 164.693,29.5267 163.5,27.5C 160.855,26.8081 158.355,25.8081 156,24.5C 154.403,21.2086 152.903,17.8752 151.5,14.5C 152.421,12.244 154.088,11.244 156.5,11.5C 156.773,13.451 156.107,14.951 154.5,16C 155.399,18.1917 156.399,20.3584 157.5,22.5C 162.483,25.831 165.483,24.4977 166.5,18.5C 166.565,14.6132 164.732,12.2798 161,11.5C 160.53,10.4232 160.697,9.42317 161.5,8.5 Z"/></g>
<g><path style="opacity:1" fill="#ecfbf5" d="M 195.5,13.5 C 196.75,13.5774 197.583,14.244 198,15.5C 199.523,18.4911 200.023,21.4911 199.5,24.5C 197.002,21.3451 195.668,17.6784 195.5,13.5 Z"/></g>
<g><path style="opacity:1" fill="#e8f6f0" d="M 172.5,13.5 C 174.337,13.6395 174.67,14.3061 173.5,15.5C 172.702,15.0431 172.369,14.3764 172.5,13.5 Z"/></g>
<g><path style="opacity:1" fill="#dae7e2" d="M 38.5,9.5 C 39.8221,9.33003 40.9887,9.66337 42,10.5C 43,12.5 44,14.5 45,16.5C 46.3767,14.2462 47.8767,12.0795 49.5,10C 50.4491,9.38277 51.2825,9.54943 52,10.5C 52.3614,13.4371 51.8614,16.2704 50.5,19C 54.9821,29.3839 51.6488,34.7173 40.5,35C 36.1837,33.194 34.3503,30.0273 35,25.5C 36.3052,22.702 37.8052,20.0353 39.5,17.5C 38.7308,14.8853 38.3975,12.2186 38.5,9.5 Z"/></g>
<g><path style="opacity:1" fill="#ecfbf5" d="M 49.5,11.5 C 50.7497,14.4225 50.0831,17.0891 47.5,19.5C 47.4363,16.9503 48.103,14.2836 49.5,11.5 Z"/></g>
<g><path style="opacity:1" fill="#ebf9f3" d="M 39.5,11.5 C 40.7498,11.5774 41.5831,12.244 42,13.5C 43.2053,15.5342 43.372,17.5342 42.5,19.5C 41.1028,16.9742 40.1028,14.3076 39.5,11.5 Z"/></g>
<g><path style="opacity:1" fill="#ecfbf5" d="M 42.5,20.5 C 52.9798,21.3256 54.3131,25.4923 46.5,33C 43.947,33.8513 41.6137,33.518 39.5,32C 40.9308,31.5348 42.0975,30.7014 43,29.5C 43.3333,30.1667 43.6667,30.8333 44,31.5C 44.2838,27.8804 46.1171,25.3804 49.5,24C 47.5,23.6667 45.5,23.3333 43.5,23C 42.7476,22.3292 42.4142,21.4959 42.5,20.5 Z"/></g>
<g><path style="opacity:1" fill="#ecfbf5" d="M 38.5,21.5 C 41.4523,22.399 42.6189,24.399 42,27.5C 39.7355,26.0842 38.5688,24.0842 38.5,21.5 Z"/></g>
<g><path style="opacity:1" fill="#edfcf6" d="M 198.5,25.5 C 201.247,25.1866 203.914,25.52 206.5,26.5C 205.91,27.7989 204.91,28.6322 203.5,29C 201.1,29.1858 198.766,29.6858 196.5,30.5C 198.937,31.8034 201.104,33.4701 203,35.5C 203.078,37.6565 203.245,39.6565 203.5,41.5C 204.971,40.6195 205.804,39.2861 206,37.5C 206.976,39.8872 208.809,41.0539 211.5,41C 206.336,44.5045 201.503,44.0045 197,39.5C 193.273,34.0284 193.773,29.3618 198.5,25.5 Z"/></g>
<g><path style="opacity:1" fill="#ebfaf4" d="M 36.5,25.5 C 39.2617,25.8859 40.2617,27.2192 39.5,29.5C 38.0656,28.4116 37.0656,27.0783 36.5,25.5 Z"/></g>
<g><path style="opacity:1" fill="#edfcf6" d="M 208.5,27.5 C 209.5,27.5 210.5,27.5 211.5,27.5C 211.002,30.5015 209.502,32.8349 207,34.5C 206.5,34.1667 206,33.8333 205.5,33.5C 206.513,31.4734 207.513,29.4734 208.5,27.5 Z"/></g>
<g><path style="opacity:1" fill="#dae7e2" d="M 117.5,29.5 C 125.507,29.3336 133.507,29.5003 141.5,30C 142.643,36.4184 142.81,42.9184 142,49.5C 133.912,50.6483 125.746,50.8149 117.5,50C 116.184,43.1669 116.184,36.3336 117.5,29.5 Z"/></g>
<g><path style="opacity:1" fill="#effef8" d="M 118.5,31.5 C 125.833,31.5 133.167,31.5 140.5,31.5C 138.549,36.7845 134.882,40.4512 129.5,42.5C 125.771,40.2094 122.271,37.5428 119,34.5C 118.517,33.552 118.351,32.552 118.5,31.5 Z"/></g>
<g><path style="opacity:1" fill="#eefdf7" d="M 212.5,32.5 C 213.376,32.3691 214.043,32.7025 214.5,33.5C 213.158,34.8761 211.825,36.2094 210.5,37.5C 210.167,37.1667 209.833,36.8333 209.5,36.5C 210.524,35.1482 211.524,33.8149 212.5,32.5 Z"/></g>
<g><path style="opacity:1" fill="#d9e6e1" d="M 235.5,34.5 C 241.629,33.5548 245.296,36.0548 246.5,42C 244.37,49.4788 239.87,51.3121 233,47.5C 230.463,42.3946 231.296,38.0613 235.5,34.5 Z"/></g>
<g><path style="opacity:1" fill="#eefdf7" d="M 237.5,37.5 C 239.048,37.8212 239.715,38.8212 239.5,40.5C 240.5,40.5 241.5,40.5 242.5,40.5C 242.5,41.5 242.5,42.5 242.5,43.5C 241.5,43.5 240.5,43.5 239.5,43.5C 238.833,47.5 238.167,47.5 237.5,43.5C 236.5,43.5 235.5,43.5 234.5,43.5C 234.5,42.5 234.5,41.5 234.5,40.5C 235.5,40.5 236.5,40.5 237.5,40.5C 237.5,39.5 237.5,38.5 237.5,37.5 Z"/></g>
<g><path style="opacity:1" fill="#effef8" d="M 118.5,37.5 C 121.98,40.0762 125.646,42.4096 129.5,44.5C 133.384,42.7905 136.884,40.4571 140,37.5C 140.499,41.1516 140.665,44.8183 140.5,48.5C 133.167,48.5 125.833,48.5 118.5,48.5C 118.5,44.8333 118.5,41.1667 118.5,37.5 Z"/></g>
<g><path style="opacity:1" fill="#dae7e2" d="M 14.5,40.5 C 16.5273,40.3379 18.5273,40.5045 20.5,41C 21.8333,42.3333 21.8333,43.6667 20.5,45C 18.8988,45.2734 17.3988,45.7734 16,46.5C 12.2414,58.743 16.2414,62.743 28,58.5C 28.5,56 29,53.5 29.5,51C 28.0685,48.6169 27.2351,46.1169 27,43.5C 32.6889,42.2007 34.6889,44.534 33,50.5C 33.1585,58.8992 29.1585,63.5659 21,64.5C 20.218,67.2569 20.718,69.7569 22.5,72C 25.7024,73.4833 29.0357,73.8166 32.5,73C 34.202,69.5482 35.5353,65.8816 36.5,62C 33.0288,55.4779 34.8621,52.9779 42,54.5C 43.1675,57.8926 42.3342,60.5592 39.5,62.5C 38.2251,65.3728 37.3918,68.3728 37,71.5C 36.5348,72.9308 35.7014,74.0975 34.5,75C 22.9474,78.9571 16.9474,74.7904 16.5,62.5C 13.4593,60.9193 11.7927,58.4193 11.5,55C 12.2341,50.0908 13.2341,45.2575 14.5,40.5 Z"/></g>
<g><path style="opacity:1" fill="#d8e5e0" d="M 75.5,66.5 C 75.5,63.5 75.5,60.5 75.5,57.5C 72.5,57.5 69.5,57.5 66.5,57.5C 65.5318,55.3926 65.1984,53.0593 65.5,50.5C 68.8333,50.5 72.1667,50.5 75.5,50.5C 75.5,47.1667 75.5,43.8333 75.5,40.5C 77.7925,40.2436 79.9592,40.5769 82,41.5C 82.498,44.4816 82.6646,47.4816 82.5,50.5C 85.5,50.5 88.5,50.5 91.5,50.5C 91.5,52.8333 91.5,55.1667 91.5,57.5C 88.5,57.5 85.5,57.5 82.5,57.5C 82.6646,60.5184 82.498,63.5184 82,66.5C 79.7265,67.8112 77.5598,67.8112 75.5,66.5 Z"/></g>
<g><path style="opacity:1" fill="#d9e6e1" d="M 178.5,43.5 C 181.456,46.2792 184.623,48.9458 188,51.5C 188.928,48.9648 190.762,47.9648 193.5,48.5C 193.873,51.5739 194.539,54.5739 195.5,57.5C 194.07,57.4208 192.736,57.7542 191.5,58.5C 190.808,57.9747 190.308,57.3081 190,56.5C 182.856,65.4378 177.689,64.4378 174.5,53.5C 174.922,51.3368 176.256,50.0034 178.5,49.5C 177.181,47.4684 177.181,45.4684 178.5,43.5 Z"/></g>
<g><path style="opacity:1" fill="#effef8" d="M 37.5,56.5 C 39.337,56.6395 39.6704,57.3061 38.5,58.5C 37.7025,58.0431 37.3691,57.3764 37.5,56.5 Z"/></g>
<g><path style="opacity:1" fill="#e5f3ed" d="M 66.5,57.5 C 69.5,57.5 72.5,57.5 75.5,57.5C 75.5,60.5 75.5,63.5 75.5,66.5C 74.5269,64.0521 74.1936,61.3854 74.5,58.5C 71.6146,58.8064 68.9479,58.4731 66.5,57.5 Z"/></g>
<g><path style="opacity:1" fill="#d9e6e1" d="M 154.5,61.5 C 158.157,65.1637 161.491,69.1637 164.5,73.5C 162.829,75.5098 162.162,77.8431 162.5,80.5C 160.143,80.3367 157.81,80.5034 155.5,81C 154.751,82.7337 154.251,84.567 154,86.5C 146.462,88.3567 143.129,85.0234 144,76.5C 145.328,74.9775 145.162,73.3108 143.5,71.5C 147.187,68.1446 150.853,64.8113 154.5,61.5 Z"/></g>
<g><path style="opacity:1" fill="#edfcf6" d="M 150.5,66.5 C 152.447,68.1505 154.447,68.9838 156.5,69C 155.921,71.0539 155.588,73.0539 155.5,75C 153.213,74.5347 151.047,74.3681 149,74.5C 148.493,73.0039 148.993,71.8373 150.5,71C 148.069,69.5682 148.069,68.0682 150.5,66.5 Z"/></g>
<g><path style="opacity:1" fill="#dae7e2" d="M 221.5,66.5 C 223.199,66.3398 224.866,66.5065 226.5,67C 227.936,71.0607 226.602,72.2273 222.5,70.5C 220.005,72.6589 218.339,75.3255 217.5,78.5C 218.869,83.688 222.203,85.5213 227.5,84C 229.167,81.6667 230.833,79.3333 232.5,77C 230.893,75.951 230.227,74.451 230.5,72.5C 235.631,72.606 236.797,74.9394 234,79.5C 232.285,81.7594 230.452,83.9261 228.5,86C 225.57,87.6591 222.57,87.9924 219.5,87C 216.672,90.6925 217.338,93.6925 221.5,96C 223.5,96.6667 225.5,96.6667 227.5,96C 231.303,92.8736 233.303,88.8736 233.5,84C 237.506,83.0126 239.339,84.5126 239,88.5C 237.829,89.8932 236.329,90.7265 234.5,91C 232.539,93.9628 230.206,96.6294 227.5,99C 216.906,99.2334 213.573,94.4001 217.5,84.5C 215.534,81.451 215.034,78.1177 216,74.5C 218.09,71.9783 219.924,69.3116 221.5,66.5 Z"/></g>
<g><path style="opacity:1" fill="#dae7e2" d="M 95.5,68.5 C 97.1992,68.3398 98.8659,68.5065 100.5,69C 101.936,73.0607 100.602,74.2273 96.5,72.5C 94.0053,74.6589 92.3386,77.3255 91.5,80.5C 92.8693,85.688 96.2027,87.5213 101.5,86C 103.167,83.6667 104.833,81.3333 106.5,79C 104.893,77.951 104.227,76.451 104.5,74.5C 109.631,74.606 110.797,76.9394 108,81.5C 106.285,83.7594 104.452,85.9261 102.5,88C 99.5698,89.6591 96.5698,89.9924 93.5,89C 90.6715,92.6925 91.3382,95.6925 95.5,98C 97.5,98.6667 99.5,98.6667 101.5,98C 105.303,94.8736 107.303,90.8736 107.5,86C 111.506,85.0126 113.339,86.5126 113,90.5C 111.829,91.8932 110.329,92.7265 108.5,93C 106.539,95.9628 104.206,98.6294 101.5,101C 90.9059,101.233 87.5725,96.4001 91.5,86.5C 89.534,83.451 89.034,80.1177 90,76.5C 92.0902,73.9783 93.9235,71.3116 95.5,68.5 Z"/></g>
<g><path style="opacity:1" fill="#edfcf6" d="M 158.5,76.5 C 161.548,76.494 162.048,77.494 160,79.5C 158.961,78.7562 158.461,77.7562 158.5,76.5 Z"/></g>
<g><path style="opacity:1" fill="#ebfaf4" d="M 145.5,76.5 C 149.414,78.1086 149.247,79.7752 145,81.5C 144.36,79.735 144.527,78.0683 145.5,76.5 Z"/></g>
<g><path style="opacity:1" fill="#d9e6e1" d="M 58.5,81.5 C 64.6529,81.4837 67.4862,84.4837 67,90.5C 63.4319,95.4101 59.4319,95.7435 55,91.5C 53.7549,87.2353 54.9215,83.902 58.5,81.5 Z"/></g>
<g><path style="opacity:1" fill="#effff8" d="M 150.5,83.5 C 152.337,83.6395 152.67,84.3061 151.5,85.5C 150.702,85.0431 150.369,84.3764 150.5,83.5 Z"/></g>
<g><path style="opacity:1" fill="#e5f3ed" d="M 180.5,82.5 C 181.278,83.1556 181.944,83.9889 182.5,85C 182.167,85.5 181.833,86 181.5,86.5C 180.818,85.7573 180.151,85.0906 179.5,84.5C 179.328,83.5084 179.662,82.8417 180.5,82.5 Z"/></g>
<g><path style="opacity:1" fill="#d8e5e0" d="M 11.5,84.5 C 15.7716,83.9867 19.6049,84.9867 23,87.5C 28.3355,83.2245 33.3355,83.5579 38,88.5C 38.9115,92.4525 38.2448,96.1191 36,99.5C 32.1667,103.333 28.3333,107.167 24.5,111C 23.5,111.667 22.5,111.667 21.5,111C 16.3,106.135 11.4666,100.968 7,95.5C 5.77575,90.626 7.27575,86.9593 11.5,84.5 Z"/></g>
<g><path style="opacity:1" fill="#d8e6e1" d="M 180.5,82.5 C 182.277,82.7863 183.944,83.4529 185.5,84.5C 188.609,81.7332 191.276,82.0666 193.5,85.5C 193.737,86.791 193.404,87.791 192.5,88.5C 190.5,88.5 188.5,88.5 186.5,88.5C 186.167,88.5 185.833,88.5 185.5,88.5C 184.5,88.5 183.5,88.5 182.5,88.5C 182.167,88.5 181.833,88.5 181.5,88.5C 180.5,88.5 179.5,88.5 178.5,88.5C 178.5,89.5 178.5,90.5 178.5,91.5C 178.5,91.8333 178.5,92.1667 178.5,92.5C 178.5,93.5 178.5,94.5 178.5,95.5C 178.5,95.8333 178.5,96.1667 178.5,96.5C 178.821,98.0481 179.821,98.7148 181.5,98.5C 181.833,98.5 182.167,98.5 182.5,98.5C 183.5,98.5 184.5,98.5 185.5,98.5C 185.833,98.5 186.167,98.5 186.5,98.5C 188.5,98.5 190.5,98.5 192.5,98.5C 193.167,98.5 193.5,98.8333 193.5,99.5C 188.167,99.5 182.833,99.5 177.5,99.5C 176.892,94.0557 177.558,89.0557 179.5,84.5C 180.151,85.0906 180.818,85.7573 181.5,86.5C 181.833,86 182.167,85.5 182.5,85C 181.944,83.9889 181.278,83.1556 180.5,82.5 Z"/></g>
<g><path style="opacity:1" fill="#e5f4ed" d="M 188.5,83.5 C 190.465,83.9483 190.798,84.9483 189.5,86.5C 188.614,85.675 188.281,84.675 188.5,83.5 Z"/></g>
<g><path style="opacity:1" fill="#eaf8f2" d="M 234.5,85.5 C 236.465,85.9483 236.798,86.9483 235.5,88.5C 234.614,87.675 234.281,86.675 234.5,85.5 Z"/></g>
<g><path style="opacity:1" fill="#eaf8f2" d="M 108.5,87.5 C 110.465,87.9483 110.798,88.9483 109.5,90.5C 108.614,89.675 108.281,88.675 108.5,87.5 Z"/></g>
<g><path style="opacity:1" fill="#effff8" d="M 181.5,88.5 C 181.5,89.5 181.5,90.5 181.5,91.5C 180.5,91.5 179.5,91.5 178.5,91.5C 178.5,90.5 178.5,89.5 178.5,88.5C 179.5,88.5 180.5,88.5 181.5,88.5 Z"/></g>
<g><path style="opacity:1" fill="#effef8" d="M 178.5,92.5 C 179.5,92.5 180.5,92.5 181.5,92.5C 181.5,93.5 181.5,94.5 181.5,95.5C 180.5,95.5 179.5,95.5 178.5,95.5C 178.5,94.5 178.5,93.5 178.5,92.5 Z"/></g>
<g><path style="opacity:1" fill="#dfede7" d="M 193.5,85.5 C 194.833,90.1667 194.833,94.8333 193.5,99.5C 193.5,98.8333 193.167,98.5 192.5,98.5C 192.03,97.3065 191.03,96.6399 189.5,96.5C 187.97,96.6399 186.97,97.3065 186.5,98.5C 186.167,98.5 185.833,98.5 185.5,98.5C 184.5,95.8333 183.5,95.8333 182.5,98.5C 182.167,98.5 181.833,98.5 181.5,98.5C 181.179,96.9519 180.179,96.2852 178.5,96.5C 178.5,96.1667 178.5,95.8333 178.5,95.5C 179.5,95.5 180.5,95.5 181.5,95.5C 181.5,94.5 181.5,93.5 181.5,92.5C 180.5,92.5 179.5,92.5 178.5,92.5C 178.5,92.1667 178.5,91.8333 178.5,91.5C 179.5,91.5 180.5,91.5 181.5,91.5C 181.5,90.5 181.5,89.5 181.5,88.5C 181.833,88.5 182.167,88.5 182.5,88.5C 182.5,89.5 182.5,90.5 182.5,91.5C 183.5,91.5 184.5,91.5 185.5,91.5C 185.5,90.5 185.5,89.5 185.5,88.5C 185.833,88.5 186.167,88.5 186.5,88.5C 186.5,89.5 186.5,90.5 186.5,91.5C 188.5,91.5 190.5,91.5 192.5,91.5C 192.5,90.5 192.5,89.5 192.5,88.5C 193.404,87.791 193.737,86.791 193.5,85.5 Z"/></g>
<g><path style="opacity:1" fill="#ebfaf4" d="M 186.5,92.5 C 188.5,92.5 190.5,92.5 192.5,92.5C 192.5,93.5 192.5,94.5 192.5,95.5C 190.5,95.5 188.5,95.5 186.5,95.5C 186.5,94.5 186.5,93.5 186.5,92.5 Z"/></g>
<g><path style="opacity:1" fill="#eefdf7" d="M 182.5,92.5 C 183.5,92.5 184.5,92.5 185.5,92.5C 185.5,93.5 185.5,94.5 185.5,95.5C 184.5,95.5 183.5,95.5 182.5,95.5C 182.5,94.5 182.5,93.5 182.5,92.5 Z"/></g>
<g><path style="opacity:1" fill="#ecfbf5" d="M 186.5,88.5 C 188.5,88.5 190.5,88.5 192.5,88.5C 192.5,89.5 192.5,90.5 192.5,91.5C 190.5,91.5 188.5,91.5 186.5,91.5C 186.5,90.5 186.5,89.5 186.5,88.5 Z"/></g>
<g><path style="opacity:1" fill="#eefdf7" d="M 182.5,88.5 C 183.5,88.5 184.5,88.5 185.5,88.5C 185.5,89.5 185.5,90.5 185.5,91.5C 184.5,91.5 183.5,91.5 182.5,91.5C 182.5,90.5 182.5,89.5 182.5,88.5 Z"/></g>
<g><path style="opacity:1" fill="#d8e6e1" d="M 137.5,94.5 C 146.467,95.8771 155.134,98.3771 163.5,102C 155.892,104.653 148.226,107.153 140.5,109.5C 136.168,108.667 132.002,107.334 128,105.5C 126.266,106.466 125.432,107.966 125.5,110C 125.225,115.126 125.558,120.292 126.5,125.5C 124.833,125.5 123.167,125.5 121.5,125.5C 121.858,121.401 121.858,117.401 121.5,113.5C 121.968,110.453 122.968,107.619 124.5,105C 121.968,104.381 119.635,103.381 117.5,102C 124.127,99.1828 130.794,96.6828 137.5,94.5 Z"/></g>
<g><path style="opacity:1" fill="#d9e6e1" d="M 52.5,93.5 C 53.1471,94.2739 53.4805,95.2739 53.5,96.5C 53.3028,98.6822 52.6361,100.682 51.5,102.5C 53.5256,106.464 55.5256,106.297 57.5,102C 55.7217,99.775 55.2217,97.275 56,94.5C 59.1347,95.7994 62.3013,95.7994 65.5,94.5C 66.3857,95.325 66.719,96.325 66.5,97.5C 61.6831,98.2373 60.3498,100.904 62.5,105.5C 64.2825,103.977 64.9492,101.977 64.5,99.5C 68.1612,99.3501 69.1612,100.85 67.5,104C 69.3824,106.065 70.3824,105.565 70.5,102.5C 70.3028,100.318 69.6361,98.3178 68.5,96.5C 68.8242,94.4311 69.6575,94.0977 71,95.5C 73.1605,99.5193 72.9938,103.353 70.5,107C 63.8333,107.667 57.1667,107.667 50.5,107C 48.7085,102.04 49.3752,97.5401 52.5,93.5 Z"/></g>
<g><path style="opacity:1" fill="#effff8" d="M 178.5,96.5 C 180.179,96.2852 181.179,96.9519 181.5,98.5C 179.821,98.7148 178.821,98.0481 178.5,96.5 Z"/></g>
<g><path style="opacity:1" fill="#eefdf7" d="M 185.5,98.5 C 184.5,98.5 183.5,98.5 182.5,98.5C 183.5,95.8333 184.5,95.8333 185.5,98.5 Z"/></g>
<g><path style="opacity:1" fill="#ecfbf5" d="M 192.5,98.5 C 190.5,98.5 188.5,98.5 186.5,98.5C 186.97,97.3065 187.97,96.6399 189.5,96.5C 191.03,96.6399 192.03,97.3065 192.5,98.5 Z"/></g>
<g><path style="opacity:1" fill="#ddebe5" d="M 53.5,101.5 C 55.337,101.639 55.6704,102.306 54.5,103.5C 53.7025,103.043 53.3691,102.376 53.5,101.5 Z"/></g>
<g><path style="opacity:1" fill="#d8e6e0" d="M 127.5,108.5 C 131.816,109.827 136.149,111.16 140.5,112.5C 144.432,110.967 148.432,109.634 152.5,108.5C 155.049,114.215 153.383,117.715 147.5,119C 142.5,119.667 137.5,119.667 132.5,119C 127.865,117.144 126.198,113.644 127.5,108.5 Z"/></g>
<g><path style="opacity:1" fill="#e3f1eb" d="M 218.5,115.5 C 219.278,116.156 219.944,116.989 220.5,118C 220.167,118.5 219.833,119 219.5,119.5C 218.818,118.757 218.151,118.091 217.5,117.5C 217.328,116.508 217.662,115.842 218.5,115.5 Z"/></g>
<g><path style="opacity:1" fill="#d8e6e0" d="M 218.5,115.5 C 220.277,115.786 221.944,116.453 223.5,117.5C 226.609,114.733 229.276,115.067 231.5,118.5C 231.737,119.791 231.404,120.791 230.5,121.5C 227.167,121.5 223.833,121.5 220.5,121.5C 220.167,121.5 219.833,121.5 219.5,121.5C 218.5,121.5 217.5,121.5 216.5,121.5C 216.5,122.5 216.5,123.5 216.5,124.5C 216.5,124.833 216.5,125.167 216.5,125.5C 216.5,126.5 216.5,127.5 216.5,128.5C 216.5,128.833 216.5,129.167 216.5,129.5C 216.821,131.048 217.821,131.715 219.5,131.5C 219.833,131.5 220.167,131.5 220.5,131.5C 222.5,131.5 224.5,131.5 226.5,131.5C 226.833,131.5 227.167,131.5 227.5,131.5C 228.5,131.5 229.5,131.5 230.5,131.5C 231.167,131.5 231.5,131.833 231.5,132.5C 226.167,132.5 220.833,132.5 215.5,132.5C 214.892,127.056 215.558,122.056 217.5,117.5C 218.151,118.091 218.818,118.757 219.5,119.5C 219.833,119 220.167,118.5 220.5,118C 219.944,116.989 219.278,116.156 218.5,115.5 Z"/></g>
<g><path style="opacity:1" fill="#e8f7f1" d="M 226.5,116.5 C 228.465,116.948 228.798,117.948 227.5,119.5C 226.614,118.675 226.281,117.675 226.5,116.5 Z"/></g>
<g><path style="opacity:1" fill="#d9e6e1" d="M 21.5,119.5 C 23.9032,119.393 25.7365,120.393 27,122.5C 29.1529,120.556 31.6529,120.056 34.5,121C 35.7899,123.292 37.4565,125.292 39.5,127C 38.8333,129.333 38.1667,131.667 37.5,134C 35.5,134 33.5,134 31.5,134C 30.009,136.097 29.009,138.43 28.5,141C 26.765,141.651 25.0983,141.485 23.5,140.5C 22.5224,140.977 21.6891,141.643 21,142.5C 17.3104,138.311 13.8104,133.978 10.5,129.5C 14.1867,126.145 17.8534,122.811 21.5,119.5 Z"/></g>
<g><path style="opacity:1" fill="#effef8" d="M 219.5,121.5 C 219.5,122.5 219.5,123.5 219.5,124.5C 218.5,124.5 217.5,124.5 216.5,124.5C 216.5,123.5 216.5,122.5 216.5,121.5C 217.5,121.5 218.5,121.5 219.5,121.5 Z"/></g>
<g><path style="opacity:1" fill="#edfbf5" d="M 28.5,122.5 C 34.3164,122.317 34.8164,123.65 30,126.5C 28.8118,125.437 28.3118,124.103 28.5,122.5 Z"/></g>
<g><path style="opacity:1" fill="#eefdf7" d="M 18.5,124.5 C 20.3566,127.018 22.1899,127.018 24,124.5C 24.3333,124.833 24.6667,125.167 25,125.5C 24.7309,128.168 24.5643,130.668 24.5,133C 22.892,133.658 21.7253,133.158 21,131.5C 19.9207,133.394 18.5874,133.727 17,132.5C 18.4337,129.981 18.9337,127.315 18.5,124.5 Z"/></g>
<g><path style="opacity:1" fill="#e0eee8" d="M 231.5,118.5 C 232.833,123.167 232.833,127.833 231.5,132.5C 231.5,131.833 231.167,131.5 230.5,131.5C 229.5,128.833 228.5,128.833 227.5,131.5C 227.167,131.5 226.833,131.5 226.5,131.5C 226.03,130.307 225.03,129.64 223.5,129.5C 221.97,129.64 220.97,130.307 220.5,131.5C 220.167,131.5 219.833,131.5 219.5,131.5C 219.179,129.952 218.179,129.285 216.5,129.5C 216.5,129.167 216.5,128.833 216.5,128.5C 217.5,128.5 218.5,128.5 219.5,128.5C 219.5,127.5 219.5,126.5 219.5,125.5C 218.5,125.5 217.5,125.5 216.5,125.5C 216.5,125.167 216.5,124.833 216.5,124.5C 217.5,124.5 218.5,124.5 219.5,124.5C 219.5,123.5 219.5,122.5 219.5,121.5C 219.833,121.5 220.167,121.5 220.5,121.5C 220.5,122.5 220.5,123.5 220.5,124.5C 223.833,124.5 227.167,124.5 230.5,124.5C 230.5,123.5 230.5,122.5 230.5,121.5C 231.404,120.791 231.737,119.791 231.5,118.5 Z"/></g>
<g><path style="opacity:1" fill="#ebfaf4" d="M 220.5,121.5 C 223.833,121.5 227.167,121.5 230.5,121.5C 230.5,122.5 230.5,123.5 230.5,124.5C 227.167,124.5 223.833,124.5 220.5,124.5C 220.5,123.5 220.5,122.5 220.5,121.5 Z"/></g>
<g><path style="opacity:1" fill="#eefdf7" d="M 216.5,125.5 C 217.5,125.5 218.5,125.5 219.5,125.5C 219.5,126.5 219.5,127.5 219.5,128.5C 218.5,128.5 217.5,128.5 216.5,128.5C 216.5,127.5 216.5,126.5 216.5,125.5 Z"/></g>
<g><path style="opacity:1" fill="#ebfaf4" d="M 220.5,125.5 C 222.5,125.5 224.5,125.5 226.5,125.5C 226.5,126.5 226.5,127.5 226.5,128.5C 224.5,128.5 222.5,128.5 220.5,128.5C 220.5,127.5 220.5,126.5 220.5,125.5 Z"/></g>
<g><path style="opacity:1" fill="#eefdf7" d="M 227.5,125.5 C 228.5,125.5 229.5,125.5 230.5,125.5C 230.5,126.5 230.5,127.5 230.5,128.5C 229.5,128.5 228.5,128.5 227.5,128.5C 227.5,127.5 227.5,126.5 227.5,125.5 Z"/></g>
<g><path style="opacity:1" fill="#dbe9e4" d="M 91.5,115.5 C 92.4959,115.414 93.3292,115.748 94,116.5C 95,118.5 96,120.5 97,122.5C 97.2782,118.874 99.1116,116.874 102.5,116.5C 102.656,119.066 102.322,121.566 101.5,124C 104.209,128.164 103.876,132.164 100.5,136C 94.5434,138.907 90.21,137.407 87.5,131.5C 88.4349,128.341 90.1015,125.674 92.5,123.5C 90.8271,120.882 90.4938,118.215 91.5,115.5 Z"/></g>
<g><path style="opacity:1" fill="#eefdf7" d="M 91.5,126.5 C 93.6086,127.052 94.4419,128.386 94,130.5C 92.5187,129.529 91.6854,128.196 91.5,126.5 Z"/></g>
<g><path style="opacity:1" fill="#edfcf6" d="M 94.5,126.5 C 100.725,124.658 102.725,126.991 100.5,133.5C 97.9453,136.722 94.9453,137.222 91.5,135C 92.9931,133.632 94.4931,133.465 96,134.5C 96.6898,131.804 98.1898,129.637 100.5,128C 98.4144,127.685 96.4144,127.185 94.5,126.5 Z"/></g>
<g><path style="opacity:1" fill="#ebfaf4" d="M 100.5,117.5 C 101.438,119.923 100.938,122.256 99,124.5C 98.7607,122.041 99.2607,119.707 100.5,117.5 Z"/></g>
<g><path style="opacity:1" fill="#ebf9f3" d="M 92.5,117.5 C 94.2274,119.516 95.0608,121.849 95,124.5C 93.0972,122.559 92.2639,120.226 92.5,117.5 Z"/></g>
<g><path style="opacity:1" fill="#edfcf6" d="M 34.5,129.5 C 37.9571,129.667 38.2904,130.667 35.5,132.5C 34.6143,131.675 34.281,130.675 34.5,129.5 Z"/></g>
<g><path style="opacity:1" fill="#e9f8f2" d="M 89.5,129.5 C 91.6859,129.511 92.5192,130.511 92,132.5C 90.583,131.922 89.7496,130.922 89.5,129.5 Z"/></g>
<g><path style="opacity:1" fill="#effef8" d="M 216.5,129.5 C 218.179,129.285 219.179,129.952 219.5,131.5C 217.821,131.715 216.821,131.048 216.5,129.5 Z"/></g>
<g><path style="opacity:1" fill="#ebfaf4" d="M 226.5,131.5 C 224.5,131.5 222.5,131.5 220.5,131.5C 220.97,130.307 221.97,129.64 223.5,129.5C 225.03,129.64 226.03,130.307 226.5,131.5 Z"/></g>
<g><path style="opacity:1" fill="#eefdf7" d="M 230.5,131.5 C 229.5,131.5 228.5,131.5 227.5,131.5C 228.5,128.833 229.5,128.833 230.5,131.5 Z"/></g>
<g><path style="opacity:1" fill="#d8e5e0" d="M 133.5,129.5 C 142.954,133.263 152.454,136.929 162,140.5C 161.524,143.16 160.69,145.826 159.5,148.5C 164.398,150.916 167.398,154.916 168.5,160.5C 166.167,164.97 164.834,169.47 164.5,174C 163.328,174.353 162.162,174.187 161,173.5C 157.331,178.255 153.331,178.588 149,174.5C 148.933,171.953 148.099,169.786 146.5,168C 144.238,167.358 142.071,166.525 140,165.5C 132.852,171.689 128.352,170.022 126.5,160.5C 124.77,159.974 123.436,158.974 122.5,157.5C 126.175,148.138 129.841,138.805 133.5,129.5 Z"/></g>
<g><path style="opacity:1" fill="#e5f3ed" d="M 63.5,130.5 C 64.2778,131.156 64.9444,131.989 65.5,133C 65.1667,133.5 64.8333,134 64.5,134.5C 63.8182,133.757 63.1515,133.091 62.5,132.5C 62.3284,131.508 62.6618,130.842 63.5,130.5 Z"/></g>
<g><path style="opacity:1" fill="#d8e6e1" d="M 63.5,130.5 C 65.2769,130.786 66.9436,131.453 68.5,132.5C 71.6092,129.733 74.2758,130.067 76.5,133.5C 76.7373,134.791 76.404,135.791 75.5,136.5C 73.5,136.5 71.5,136.5 69.5,136.5C 69.1667,136.5 68.8333,136.5 68.5,136.5C 67.5,136.5 66.5,136.5 65.5,136.5C 65.1667,136.5 64.8333,136.5 64.5,136.5C 63.5,136.5 62.5,136.5 61.5,136.5C 61.5,137.5 61.5,138.5 61.5,139.5C 61.5,139.833 61.5,140.167 61.5,140.5C 61.5,141.5 61.5,142.5 61.5,143.5C 61.5,143.833 61.5,144.167 61.5,144.5C 61.8212,146.048 62.8212,146.715 64.5,146.5C 64.8333,146.5 65.1667,146.5 65.5,146.5C 66.5,146.5 67.5,146.5 68.5,146.5C 68.8333,146.5 69.1667,146.5 69.5,146.5C 71.5,146.5 73.5,146.5 75.5,146.5C 76.1667,146.5 76.5,146.833 76.5,147.5C 71.1667,147.5 65.8333,147.5 60.5,147.5C 59.8917,142.056 60.5583,137.056 62.5,132.5C 63.1515,133.091 63.8182,133.757 64.5,134.5C 64.8333,134 65.1667,133.5 65.5,133C 64.9444,131.989 64.2778,131.156 63.5,130.5 Z"/></g>
<g><path style="opacity:1" fill="#e5f4ed" d="M 71.5,131.5 C 73.4646,131.948 73.7979,132.948 72.5,134.5C 71.6143,133.675 71.281,132.675 71.5,131.5 Z"/></g>
<g><path style="opacity:1" fill="#effff8" d="M 64.5,136.5 C 64.5,137.5 64.5,138.5 64.5,139.5C 63.5,139.5 62.5,139.5 61.5,139.5C 61.5,138.5 61.5,137.5 61.5,136.5C 62.5,136.5 63.5,136.5 64.5,136.5 Z"/></g>
<g><path style="opacity:1" fill="#edfcf6" d="M 25.5,136.5 C 27.0481,136.821 27.7148,137.821 27.5,139.5C 24.7524,139.598 24.0857,138.598 25.5,136.5 Z"/></g>
<g><path style="opacity:1" fill="#eefdf7" d="M 143.5,137.5 C 145.5,137.833 147.5,138.167 149.5,138.5C 149.38,140.199 149.046,141.865 148.5,143.5C 149.551,145.532 151.217,146.865 153.5,147.5C 152.815,149.547 151.649,151.214 150,152.5C 148.234,151.767 146.401,151.433 144.5,151.5C 143.828,157.367 141.494,158.034 137.5,153.5C 138.074,151.941 138.74,150.441 139.5,149C 134.273,147.579 133.273,144.746 136.5,140.5C 138.323,141.747 140.323,142.414 142.5,142.5C 142.366,140.708 142.699,139.042 143.5,137.5 Z"/></g>
<g><path style="opacity:1" fill="#dae8e2" d="M 183.5,115.5 C 184.5,115.5 185.5,115.5 186.5,115.5C 186.5,116.833 186.5,118.167 186.5,119.5C 185.5,119.5 184.5,119.5 183.5,119.5C 182.624,122.799 182.457,126.132 183,129.5C 189.392,133.346 192.892,131.513 193.5,124C 192.382,121.941 191.715,119.774 191.5,117.5C 193.912,117.244 195.579,118.244 196.5,120.5C 195.77,123.109 195.27,125.776 195,128.5C 193.326,132.089 190.493,133.755 186.5,133.5C 186.556,138.111 184.223,140.444 179.5,140.5C 174.734,140.234 172.067,137.734 171.5,133C 172.597,129.151 172.764,125.318 172,121.5C 173.726,120.424 175.559,120.257 177.5,121C 178.022,121.561 178.355,122.228 178.5,123C 175.097,126.882 173.931,131.382 175,136.5C 178,139.167 181,139.167 184,136.5C 184.167,135.833 184.333,135.167 184.5,134.5C 178.549,128.555 178.216,122.222 183.5,115.5 Z"/></g>
<g><path style="opacity:1" fill="#effef8" d="M 61.5,140.5 C 62.5,140.5 63.5,140.5 64.5,140.5C 64.5,141.5 64.5,142.5 64.5,143.5C 63.5,143.5 62.5,143.5 61.5,143.5C 61.5,142.5 61.5,141.5 61.5,140.5 Z"/></g>
<g><path style="opacity:1" fill="#dfede7" d="M 76.5,133.5 C 77.8333,138.167 77.8333,142.833 76.5,147.5C 76.5,146.833 76.1667,146.5 75.5,146.5C 75.0296,145.307 74.0296,144.64 72.5,144.5C 70.9704,144.64 69.9704,145.307 69.5,146.5C 69.1667,146.5 68.8333,146.5 68.5,146.5C 67.5,143.833 66.5,143.833 65.5,146.5C 65.1667,146.5 64.8333,146.5 64.5,146.5C 64.1788,144.952 63.1788,144.285 61.5,144.5C 61.5,144.167 61.5,143.833 61.5,143.5C 62.5,143.5 63.5,143.5 64.5,143.5C 64.5,142.5 64.5,141.5 64.5,140.5C 63.5,140.5 62.5,140.5 61.5,140.5C 61.5,140.167 61.5,139.833 61.5,139.5C 62.5,139.5 63.5,139.5 64.5,139.5C 64.5,138.5 64.5,137.5 64.5,136.5C 64.8333,136.5 65.1667,136.5 65.5,136.5C 65.5,137.5 65.5,138.5 65.5,139.5C 66.5,139.5 67.5,139.5 68.5,139.5C 68.5,138.5 68.5,137.5 68.5,136.5C 68.8333,136.5 69.1667,136.5 69.5,136.5C 69.5,137.5 69.5,138.5 69.5,139.5C 71.5,139.5 73.5,139.5 75.5,139.5C 75.5,138.5 75.5,137.5 75.5,136.5C 76.404,135.791 76.7373,134.791 76.5,133.5 Z"/></g>
<g><path style="opacity:1" fill="#ebfaf4" d="M 69.5,140.5 C 71.5,140.5 73.5,140.5 75.5,140.5C 75.5,141.5 75.5,142.5 75.5,143.5C 73.5,143.5 71.5,143.5 69.5,143.5C 69.5,142.5 69.5,141.5 69.5,140.5 Z"/></g>
<g><path style="opacity:1" fill="#eefdf7" d="M 65.5,140.5 C 66.5,140.5 67.5,140.5 68.5,140.5C 68.5,141.5 68.5,142.5 68.5,143.5C 67.5,143.5 66.5,143.5 65.5,143.5C 65.5,142.5 65.5,141.5 65.5,140.5 Z"/></g>
<g><path style="opacity:1" fill="#ecfbf5" d="M 69.5,136.5 C 71.5,136.5 73.5,136.5 75.5,136.5C 75.5,137.5 75.5,138.5 75.5,139.5C 73.5,139.5 71.5,139.5 69.5,139.5C 69.5,138.5 69.5,137.5 69.5,136.5 Z"/></g>
<g><path style="opacity:1" fill="#eefdf7" d="M 65.5,136.5 C 66.5,136.5 67.5,136.5 68.5,136.5C 68.5,137.5 68.5,138.5 68.5,139.5C 67.5,139.5 66.5,139.5 65.5,139.5C 65.5,138.5 65.5,137.5 65.5,136.5 Z"/></g>
<g><path style="opacity:1" fill="#d9e6e1" d="M 192.5,142.5 C 193.552,142.351 194.552,142.517 195.5,143C 196.207,145.543 197.54,147.709 199.5,149.5C 200.487,152.768 200.82,156.102 200.5,159.5C 190.383,163.894 186.216,160.561 188,149.5C 189.399,148.773 190.899,148.273 192.5,148C 191.248,146.172 191.248,144.339 192.5,142.5 Z"/></g>
<g><path style="opacity:1" fill="#d9e6e1" d="M 226.5,142.5 C 231.844,142.334 237.177,142.501 242.5,143C 243.416,143.374 244.25,143.874 245,144.5C 245.667,150.833 245.667,157.167 245,163.5C 244.5,164 244,164.5 243.5,165C 237.5,165.667 231.5,165.667 225.5,165C 225,164.5 224.5,164 224,163.5C 223.333,157.167 223.333,150.833 224,144.5C 224.995,143.934 225.828,143.267 226.5,142.5 Z"/></g>
<g><path style="opacity:1" fill="#effff8" d="M 61.5,144.5 C 63.1788,144.285 64.1788,144.952 64.5,146.5C 62.8212,146.715 61.8212,146.048 61.5,144.5 Z"/></g>
<g><path style="opacity:1" fill="#eefdf7" d="M 68.5,146.5 C 67.5,146.5 66.5,146.5 65.5,146.5C 66.5,143.833 67.5,143.833 68.5,146.5 Z"/></g>
<g><path style="opacity:1" fill="#ecfbf5" d="M 75.5,146.5 C 73.5,146.5 71.5,146.5 69.5,146.5C 69.9704,145.307 70.9704,144.64 72.5,144.5C 74.0296,144.64 75.0296,145.307 75.5,146.5 Z"/></g>
<g><path style="opacity:1" fill="#effef8" d="M 230.5,146.5 C 230.5,148.5 230.5,150.5 230.5,152.5C 233.385,152.806 236.052,152.473 238.5,151.5C 238.5,149.833 238.5,148.167 238.5,146.5C 239.5,146.5 240.5,146.5 241.5,146.5C 241.5,151.5 241.5,156.5 241.5,161.5C 240.5,161.5 239.5,161.5 238.5,161.5C 238.5,159.833 238.5,158.167 238.5,156.5C 235.833,156.5 233.167,156.5 230.5,156.5C 230.5,158.167 230.5,159.833 230.5,161.5C 229.5,161.5 228.5,161.5 227.5,161.5C 227.5,156.5 227.5,151.5 227.5,146.5C 228.5,146.5 229.5,146.5 230.5,146.5 Z"/></g>
<g><path style="opacity:1" fill="#d9e6e1" d="M 201.5,150.5 C 203.167,150.5 204.833,150.5 206.5,150.5C 206.5,153.5 206.5,156.5 206.5,159.5C 204.833,159.5 203.167,159.5 201.5,159.5C 201.5,156.5 201.5,153.5 201.5,150.5 Z"/></g>
<g><path style="opacity:1" fill="#e1efe9" d="M 230.5,146.5 C 231.451,147.919 231.784,149.585 231.5,151.5C 233.833,151.5 236.167,151.5 238.5,151.5C 236.052,152.473 233.385,152.806 230.5,152.5C 230.5,150.5 230.5,148.5 230.5,146.5 Z"/></g>
<g><path style="opacity:1" fill="#edfcf6" d="M 157.5,152.5 C 162.582,153.314 164.748,156.314 164,161.5C 161.667,160.5 159.333,159.5 157,158.5C 156.82,156.512 156.986,154.512 157.5,152.5 Z"/></g>
<g><path style="opacity:1" fill="#edfcf6" d="M 131.5,160.5 C 133.167,160.5 134.833,160.5 136.5,160.5C 137.322,166.209 135.489,167.543 131,164.5C 130.421,163.072 130.588,161.738 131.5,160.5 Z"/></g>
<g><path style="opacity:1" fill="#d8e5e0" d="M 10.5,160.5 C 12.1439,160.286 13.6439,160.62 15,161.5C 15.4955,163.473 15.6621,165.473 15.5,167.5C 17.5273,167.338 19.5273,167.505 21.5,168C 22.3802,169.356 22.7135,170.856 22.5,172.5C 20.1667,172.5 17.8333,172.5 15.5,172.5C 15.6621,174.527 15.4955,176.527 15,178.5C 13.6439,179.38 12.1439,179.714 10.5,179.5C 10.5,177.167 10.5,174.833 10.5,172.5C 8.16667,172.5 5.83333,172.5 3.5,172.5C 3.5,170.833 3.5,169.167 3.5,167.5C 5.83333,167.5 8.16667,167.5 10.5,167.5C 10.5,165.167 10.5,162.833 10.5,160.5 Z"/></g>
<g><path style="opacity:1" fill="#d9e6e1" d="M 46.5,160.5 C 49.5184,160.335 52.5184,160.502 55.5,161C 56.3333,161.833 57.1667,162.667 58,163.5C 58.5921,169.521 58.9254,175.521 59,181.5C 58.5,182.667 57.6667,183.5 56.5,184C 50.1986,185.179 43.8652,185.513 37.5,185C 37,184.5 36.5,184 36,183.5C 34.8806,176.859 34.5472,170.192 35,163.5C 38.7996,162.034 42.6329,161.034 46.5,160.5 Z"/></g>
<g><path style="opacity:1" fill="#d8e5e0" d="M 94.5,163.5 C 96.5728,166.06 98.7395,168.726 101,171.5C 101.497,174.146 101.664,176.813 101.5,179.5C 91.7677,183.103 87.7677,179.77 89.5,169.5C 90.8333,169.5 92.1667,169.5 93.5,169.5C 93.3253,167.379 93.6586,165.379 94.5,163.5 Z"/></g>
<g><path style="opacity:1" fill="#eefdf7" d="M 50.5,164.5 C 51.8221,164.33 52.9887,164.663 54,165.5C 54.7478,170.481 55.2478,175.481 55.5,180.5C 54.1667,180.5 52.8333,180.5 51.5,180.5C 51.5,178.833 51.5,177.167 51.5,175.5C 48.8333,175.5 46.1667,175.5 43.5,175.5C 43.5,177.5 43.5,179.5 43.5,181.5C 42.1667,181.5 40.8333,181.5 39.5,181.5C 39.2491,176.493 38.9157,171.493 38.5,166.5C 39.8333,166.5 41.1667,166.5 42.5,166.5C 42.5,168.167 42.5,169.833 42.5,171.5C 45.1667,171.5 47.8333,171.5 50.5,171.5C 50.5,169.167 50.5,166.833 50.5,164.5 Z"/></g>
<g><path style="opacity:1" fill="#eefdf7" d="M 152.5,168.5 C 158.175,168.86 158.842,170.86 154.5,174.5C 151.531,173.235 150.865,171.235 152.5,168.5 Z"/></g>
<g><path style="opacity:1" fill="#d9e7e1" d="M 102.5,170.5 C 103.833,170.5 105.167,170.5 106.5,170.5C 106.5,173.5 106.5,176.5 106.5,179.5C 105.167,179.5 103.833,179.5 102.5,179.5C 102.5,176.5 102.5,173.5 102.5,170.5 Z"/></g>
<g><path style="opacity:1" fill="#d8e5e0" d="M 212.5,172.5 C 218.629,171.555 222.296,174.055 223.5,180C 221.37,187.479 216.87,189.312 210,185.5C 207.467,180.351 208.3,176.018 212.5,172.5 Z"/></g>
<g><path style="opacity:1" fill="#dae7e2" d="M 71.5,182.5 C 73.1439,182.286 74.6439,182.62 76,183.5C 78.2289,187.261 79.2289,191.261 79,195.5C 73.956,201.489 75.456,203.989 83.5,203C 86.925,200.715 87.425,197.882 85,194.5C 83.2994,192.59 81.7994,190.59 80.5,188.5C 81.3802,185.483 83.2136,184.816 86,186.5C 86.7203,188.112 86.5536,189.612 85.5,191C 91.1573,199.965 88.8239,204.965 78.5,206C 76.36,205.027 74.6933,203.527 73.5,201.5C 70.8549,200.808 68.3549,199.808 66,198.5C 64.403,195.209 62.903,191.875 61.5,188.5C 62.4209,186.244 64.0876,185.244 66.5,185.5C 66.7733,187.451 66.1066,188.951 64.5,190C 65.3995,192.192 66.3995,194.358 67.5,196.5C 72.4835,199.831 75.4835,198.498 76.5,192.5C 76.5649,188.613 74.7315,186.28 71,185.5C 70.5304,184.423 70.6971,183.423 71.5,182.5 Z"/></g>
<g><path style="opacity:1" fill="#d9e7e1" d="M 224.5,186.5 C 229.189,189.988 230.689,194.655 229,200.5C 228.167,201.333 227.333,202.167 226.5,203C 219.167,203.667 211.833,203.667 204.5,203C 201.018,198.969 200.518,194.469 203,189.5C 205.119,186.523 206.286,186.856 206.5,190.5C 206.069,192.754 205.403,194.921 204.5,197C 204.767,200.164 206.433,201.164 209.5,200C 210.804,199.196 211.471,198.029 211.5,196.5C 209.709,193.752 209.209,190.752 210,187.5C 213.796,190.1 217.629,190.1 221.5,187.5C 222.386,188.325 222.719,189.325 222.5,190.5C 217.063,191.548 215.063,194.881 216.5,200.5C 217.822,200.67 218.989,200.337 220,199.5C 219.695,197.557 219.695,195.557 220,193.5C 221.333,192.167 222.667,192.167 224,193.5C 224.497,195.81 224.663,198.143 224.5,200.5C 225.5,200.5 226.5,200.5 227.5,200.5C 227.456,195.529 226.456,190.862 224.5,186.5 Z"/></g>
<g><path style="opacity:1" fill="#e8f6f0" d="M 82.5,187.5 C 84.337,187.639 84.6704,188.306 83.5,189.5C 82.7025,189.043 82.3691,188.376 82.5,187.5 Z"/></g>
<g><path style="opacity:1" fill="#dae8e2" d="M 111.5,189.5 C 118.841,189.334 126.174,189.5 133.5,190C 134.641,195.75 134.807,201.584 134,207.5C 126.58,208.647 119.08,208.813 111.5,208C 110.186,201.834 110.186,195.667 111.5,189.5 Z"/></g>
<g><path style="opacity:1" fill="#dae7e2" d="M 173.5,175.5 C 175.017,175.511 176.184,176.177 177,177.5C 178.171,179.842 179.338,182.176 180.5,184.5C 181.576,182.013 182.91,179.68 184.5,177.5C 185.651,176.269 186.817,176.269 188,177.5C 188.237,180.735 187.737,183.902 186.5,187C 190.313,191.652 190.48,196.486 187,201.5C 180.674,207.12 174.674,206.787 169,200.5C 168.667,195.175 170.5,190.675 174.5,187C 172.56,183.229 172.227,179.396 173.5,175.5 Z"/></g>
<g><path style="opacity:1" fill="#ecfbf5" d="M 172.5,190.5 C 174.592,190.561 176.092,191.561 177,193.5C 177.749,194.635 177.583,195.635 176.5,196.5C 174.663,194.824 173.33,192.824 172.5,190.5 Z"/></g>
<g><path style="opacity:1" fill="#edfcf6" d="M 177.5,189.5 C 186.421,187.999 189.255,191.332 186,199.5C 182.421,203.58 178.255,204.414 173.5,202C 175.076,201.56 176.41,200.727 177.5,199.5C 178.167,200.5 178.833,201.5 179.5,202.5C 179.833,202.333 180.167,202.167 180.5,202C 179.446,200.612 179.28,199.112 180,197.5C 181.558,195.641 183.391,194.141 185.5,193C 183.5,192.667 181.5,192.333 179.5,192C 178.244,191.583 177.577,190.75 177.5,189.5 Z"/></g>
<g><path style="opacity:1" fill="#edfcf6" d="M 185.5,178.5 C 186.493,181.628 185.827,184.628 183.5,187.5C 182.871,184.346 183.538,181.346 185.5,178.5 Z"/></g>
<g><path style="opacity:1" fill="#ecfbf5" d="M 174.5,177.5 C 177.144,180.425 178.144,183.759 177.5,187.5C 175.296,184.553 174.296,181.22 174.5,177.5 Z"/></g>
<g><path style="opacity:1" fill="#effef8" d="M 112.5,191.5 C 119.167,191.5 125.833,191.5 132.5,191.5C 132.649,192.552 132.483,193.552 132,194.5C 128.974,197.026 125.807,199.36 122.5,201.5C 118.124,199.124 114.79,195.79 112.5,191.5 Z"/></g>
<g><path style="opacity:1" fill="#effef8" d="M 131.5,197.5 C 132.477,200.287 132.81,203.287 132.5,206.5C 125.833,206.5 119.167,206.5 112.5,206.5C 112.335,203.15 112.502,199.817 113,196.5C 115.848,199.356 119.181,201.356 123,202.5C 125.942,201.066 128.776,199.4 131.5,197.5 Z"/></g>
<g><path style="opacity:1" fill="#e5f3ed" d="M 131.5,197.5 C 131.56,196.957 131.893,196.624 132.5,196.5C 133.806,199.98 133.806,203.313 132.5,206.5C 132.81,203.287 132.477,200.287 131.5,197.5 Z"/></g>
<g><path style="opacity:1" fill="#edfcf6" d="M 170.5,196.5 C 171.386,195.224 172.386,195.224 173.5,196.5C 174.326,197.451 174.492,198.451 174,199.5C 172.961,198.29 171.794,197.29 170.5,196.5 Z"/></g>
<g><path style="opacity:1" fill="#ddebe5" d="M 206.5,195.5 C 207.675,195.281 208.675,195.614 209.5,196.5C 207.948,197.798 206.948,197.465 206.5,195.5 Z"/></g>
<g><path style="opacity:1" fill="#d8e6e0" d="M -0.5,229.5 C -0.5,228.5 -0.5,227.5 -0.5,226.5C 0.376442,226.631 1.04311,226.298 1.5,225.5C 3.50786,216.004 9.17453,212.337 18.5,214.5C 18.6099,211.614 19.7766,209.28 22,207.5C 30.478,210.66 38.978,213.66 47.5,216.5C 44.6321,225.244 41.4654,233.91 38,242.5C 36.6047,243.43 35.1047,243.43 33.5,242.5C 26.6027,247.65 22.2693,245.983 20.5,237.5C 18.3584,236.399 16.1917,235.399 14,234.5C 7.79201,240.408 3.79201,239.075 2,230.5C 1.32924,229.748 0.495904,229.414 -0.5,229.5 Z"/></g>
<g><path style="opacity:1" fill="#d9e7e2" d="M 160.5,209.5 C 161.833,209.5 163.167,209.5 164.5,209.5C 164.5,210.5 164.5,211.5 164.5,212.5C 167.984,212.672 170.984,211.672 173.5,209.5C 175.519,210.48 177.353,211.814 179,213.5C 179.5,220.826 179.666,228.159 179.5,235.5C 171.58,235.815 163.747,235.482 156,234.5C 155.333,227.5 155.333,220.5 156,213.5C 158.159,212.845 159.659,211.512 160.5,209.5 Z"/></g>
<g><path style="opacity:1" fill="#e5f4ee" d="M 161.5,211.5 C 162.649,211.791 163.316,212.624 163.5,214C 163.167,214.833 162.833,215.667 162.5,216.5C 161.548,214.955 161.215,213.288 161.5,211.5 Z"/></g>
<g><path style="opacity:1" fill="#edfcf6" d="M 172.5,211.5 C 173.649,211.791 174.316,212.624 174.5,214C 174.167,214.833 173.833,215.667 173.5,216.5C 172.548,214.955 172.215,213.288 172.5,211.5 Z"/></g>
<g><path style="opacity:1" fill="#eefdf7" d="M 30.5,213.5 C 34.9961,213.816 36.3294,215.983 34.5,220C 36.0854,221.289 37.4187,222.789 38.5,224.5C 38.3918,225.442 38.0585,226.275 37.5,227C 35.4132,226.782 33.4132,226.949 31.5,227.5C 30.7542,228.736 30.4208,230.07 30.5,231.5C 28.1579,231.496 26.1579,230.663 24.5,229C 25.8613,227.416 26.528,225.582 26.5,223.5C 21.8639,223.547 20.5306,221.547 22.5,217.5C 24.861,217.674 27.1944,218.007 29.5,218.5C 29.6287,216.784 29.962,215.117 30.5,213.5 Z"/></g>
<g><path style="opacity:1" fill="#eefdf7" d="M 11.5,216.5 C 16.3313,216.162 17.6646,218.162 15.5,222.5C 12.6374,222.071 9.97069,221.071 7.5,219.5C 8.9014,218.479 10.2347,217.479 11.5,216.5 Z"/></g>
<g><path style="opacity:1" fill="#effef8" d="M 157.5,218.5 C 158.833,218.5 160.167,218.5 161.5,218.5C 161.5,219.833 161.5,221.167 161.5,222.5C 160.167,222.5 158.833,222.5 157.5,222.5C 157.5,221.167 157.5,219.833 157.5,218.5 Z"/></g>
<g><path style="opacity:1" fill="#effef8" d="M 162.5,218.5 C 164.167,218.5 165.833,218.5 167.5,218.5C 167.5,219.833 167.5,221.167 167.5,222.5C 165.833,222.5 164.167,222.5 162.5,222.5C 162.5,221.167 162.5,219.833 162.5,218.5 Z"/></g>
<g><path style="opacity:1" fill="#effff8" d="M 172.5,218.5 C 172.5,219.833 172.5,221.167 172.5,222.5C 171.167,222.5 169.833,222.5 168.5,222.5C 168.5,221.167 168.5,219.833 168.5,218.5C 169.833,218.5 171.167,218.5 172.5,218.5 Z"/></g>
<g><path style="opacity:1" fill="#d8e5e0" d="M 65.5,220.5 C 69.1977,220.194 72.6977,220.861 76,222.5C 84.2738,218.066 88.2738,220.4 88,229.5C 84.352,234.315 80.1853,238.648 75.5,242.5C 70.8147,238.648 66.648,234.315 63,229.5C 62.1307,226.007 62.964,223.007 65.5,220.5 Z"/></g>
<g><path style="opacity:1" fill="#d9e6e1" d="M 117.5,220.5 C 122.844,220.334 128.177,220.501 133.5,221C 134.416,221.374 135.25,221.874 136,222.5C 136.667,228.833 136.667,235.167 136,241.5C 135.5,242 135,242.5 134.5,243C 128.5,243.667 122.5,243.667 116.5,243C 116,242.5 115.5,242 115,241.5C 114.333,235.167 114.333,228.833 115,222.5C 115.995,221.934 116.828,221.267 117.5,220.5 Z"/></g>
<g><path style="opacity:1" fill="#dfede7" d="M 172.5,218.5 C 173.167,218.5 173.833,218.5 174.5,218.5C 174.5,219.833 174.5,221.167 174.5,222.5C 175.5,222.5 176.5,222.5 177.5,222.5C 177.5,221.167 177.5,219.833 177.5,218.5C 178.833,221.833 178.833,225.167 177.5,228.5C 177.5,226.833 177.5,225.167 177.5,223.5C 176.5,223.5 175.5,223.5 174.5,223.5C 174.5,225.167 174.5,226.833 174.5,228.5C 173.833,228.5 173.167,228.5 172.5,228.5C 172.5,226.833 172.5,225.167 172.5,223.5C 171.167,223.5 169.833,223.5 168.5,223.5C 168.5,223.167 168.5,222.833 168.5,222.5C 169.833,222.5 171.167,222.5 172.5,222.5C 172.5,221.167 172.5,219.833 172.5,218.5 Z"/></g>
<g><path style="opacity:1" fill="#effff8" d="M 174.5,218.5 C 175.5,218.5 176.5,218.5 177.5,218.5C 177.5,219.833 177.5,221.167 177.5,222.5C 176.5,222.5 175.5,222.5 174.5,222.5C 174.5,221.167 174.5,219.833 174.5,218.5 Z"/></g>
<g><path style="opacity:1" fill="#dbe8e3" d="M 229.5,235.5 C 227.989,237.441 225.989,237.941 223.5,237C 222.167,234.419 220.334,232.252 218,230.5C 217.231,227.901 217.398,225.401 218.5,223C 219.332,222.312 219.998,222.479 220.5,223.5C 219.456,225.768 219.289,228.101 220,230.5C 223.282,231.911 225.116,230.745 225.5,227C 225.156,225.635 224.489,224.468 223.5,223.5C 224.325,222.614 225.325,222.281 226.5,222.5C 227.154,226.858 226.154,230.691 223.5,234C 223.667,235.5 224.5,236.333 226,236.5C 227.138,236.011 228.305,235.678 229.5,235.5 Z"/></g>
<g><path style="opacity:1" fill="#effef8" d="M 157.5,223.5 C 158.833,223.5 160.167,223.5 161.5,223.5C 161.5,225.167 161.5,226.833 161.5,228.5C 160.167,228.5 158.833,228.5 157.5,228.5C 157.5,226.833 157.5,225.167 157.5,223.5 Z"/></g>
<g><path style="opacity:1" fill="#effef8" d="M 162.5,223.5 C 164.167,223.5 165.833,223.5 167.5,223.5C 167.5,225.167 167.5,226.833 167.5,228.5C 165.833,228.5 164.167,228.5 162.5,228.5C 162.5,226.833 162.5,225.167 162.5,223.5 Z"/></g>
<g><path style="opacity:1" fill="#effef8" d="M 168.5,223.5 C 169.833,223.5 171.167,223.5 172.5,223.5C 172.5,225.167 172.5,226.833 172.5,228.5C 171.167,228.5 169.833,228.5 168.5,228.5C 168.5,226.833 168.5,225.167 168.5,223.5 Z"/></g>
<g><path style="opacity:1" fill="#effef8" d="M 177.5,228.5 C 176.5,228.5 175.5,228.5 174.5,228.5C 174.5,226.833 174.5,225.167 174.5,223.5C 175.5,223.5 176.5,223.5 177.5,223.5C 177.5,225.167 177.5,226.833 177.5,228.5 Z"/></g>
<g><path style="opacity:1" fill="#effef8" d="M 121.5,224.5 C 121.5,226.5 121.5,228.5 121.5,230.5C 124.385,230.806 127.052,230.473 129.5,229.5C 129.5,227.833 129.5,226.167 129.5,224.5C 130.5,224.5 131.5,224.5 132.5,224.5C 132.5,229.5 132.5,234.5 132.5,239.5C 131.5,239.5 130.5,239.5 129.5,239.5C 129.5,237.833 129.5,236.167 129.5,234.5C 126.833,234.5 124.167,234.5 121.5,234.5C 121.5,236.167 121.5,237.833 121.5,239.5C 120.5,239.5 119.5,239.5 118.5,239.5C 118.5,234.5 118.5,229.5 118.5,224.5C 119.5,224.5 120.5,224.5 121.5,224.5 Z"/></g>
<g><path style="opacity:1" fill="#d9e7e2" d="M 229.5,235.5 C 229.492,232.455 229.159,229.455 228.5,226.5C 229.5,226.5 230.5,226.5 231.5,226.5C 231.142,229.689 230.475,232.689 229.5,235.5 Z"/></g>
<g><path style="opacity:1" fill="#e1efe9" d="M 121.5,224.5 C 122.451,225.919 122.784,227.585 122.5,229.5C 124.833,229.5 127.167,229.5 129.5,229.5C 127.052,230.473 124.385,230.806 121.5,230.5C 121.5,228.5 121.5,226.5 121.5,224.5 Z"/></g>
<g><path style="opacity:1" fill="#effef8" d="M 157.5,229.5 C 158.833,229.5 160.167,229.5 161.5,229.5C 161.5,230.833 161.5,232.167 161.5,233.5C 160.167,233.5 158.833,233.5 157.5,233.5C 157.5,232.167 157.5,230.833 157.5,229.5 Z"/></g>
<g><path style="opacity:1" fill="#effef8" d="M 162.5,229.5 C 164.167,229.5 165.833,229.5 167.5,229.5C 167.5,230.833 167.5,232.167 167.5,233.5C 165.833,233.5 164.167,233.5 162.5,233.5C 162.5,232.167 162.5,230.833 162.5,229.5 Z"/></g>
<g><path style="opacity:1" fill="#effef8" d="M 172.5,229.5 C 172.5,230.833 172.5,232.167 172.5,233.5C 171.167,233.5 169.833,233.5 168.5,233.5C 168.5,232.167 168.5,230.833 168.5,229.5C 169.833,229.5 171.167,229.5 172.5,229.5 Z"/></g>
<g><path style="opacity:1" fill="#e3f1eb" d="M 172.5,229.5 C 173.167,229.5 173.833,229.5 174.5,229.5C 174.5,230.833 174.5,232.167 174.5,233.5C 173.833,233.5 173.167,233.5 172.5,233.5C 172.5,232.167 172.5,230.833 172.5,229.5 Z"/></g>
<g><path style="opacity:1" fill="#effef8" d="M 174.5,229.5 C 175.5,229.5 176.5,229.5 177.5,229.5C 177.5,230.833 177.5,232.167 177.5,233.5C 176.5,233.5 175.5,233.5 174.5,233.5C 174.5,232.167 174.5,230.833 174.5,229.5 Z"/></g>
<g><path style="opacity:1" fill="#edfcf6" d="M 6.5,229.5 C 10.35,229.701 11.35,231.534 9.5,235C 5.53694,235.118 4.53694,233.284 6.5,229.5 Z"/></g>
<g><path style="opacity:1" fill="#edfcf6" d="M 25.5,236.5 C 29.35,236.701 30.35,238.534 28.5,242C 24.5369,242.118 23.5369,240.284 25.5,236.5 Z"/></g>
</svg>
